# xmcd
#
# Track frame offsets:
#   150
#   20925
#   38257
#   59390
#   82947
#   98780
#   122730
#   140967
#   162080
#   180590
#   202992
#   217170
#
# Disc length: 3260 seconds
#
# Revision: 0
# Processed by: cddbd v1.5.2PL0 Copyright (c) Steve Scherf et al.
# Submitted via: uFREEDB ActiveX Control 1.5
#
DISCID=a50cba0c
DTITLE=Nilson Chaves - Mapyu
DYEAR=1900
DGENRE=Pop
TTITLE0=A
TTITLE1=B
TTITLE2=C
TTITLE3=D
TTITLE4=E
TTITLE5=F
TTITLE6=G
TTITLE7=H
TTITLE8=I
TTITLE9=J
TTITLE10=K
TTITLE11=L
EXTD=
EXTT0=
EXTT1=
EXTT2=
EXTT3=
EXTT4=
EXTT5=
EXTT6=
EXTT7=
EXTT8=
EXTT9=
EXTT10=
EXTT11=
PLAYORDER=
